<svg width="512" height="512" viewBox="0 0 512 512" fill="none" xmlns="http://www.w3.org/2000/svg">
<g clip-path="url(#clip0_6_2)">
<path fill-rule="evenodd" clip-rule="evenodd" d="M256 512C323.895 512 389.01 485.029 437.019 437.019C485.029 389.01 512 323.895 512 256C512 188.105 485.029 122.99 437.019 74.9807C389.01 26.9714 323.895 0 256 0C188.105 0 122.99 26.9714 74.9807 74.9807C26.9714 122.99 0 188.105 0 256C0 323.895 26.9714 389.01 74.9807 437.019C122.99 485.029 188.105 512 256 512V512ZM128 160C128 151.513 131.371 143.374 137.373 137.373C143.374 131.371 151.513 128 160 128H352C360.487 128 368.626 131.371 374.627 137.373C380.629 143.374 384 151.513 384 160V320C384 328.487 380.629 336.626 374.627 342.627C368.626 348.629 360.487 352 352 352H278.624L219.328 411.328C217.09 413.571 214.237 415.1 211.129 415.72C208.022 416.339 204.8 416.022 201.873 414.809C198.946 413.596 196.445 411.541 194.687 408.904C192.93 406.268 191.994 403.169 192 400V352H160C151.513 352 143.374 348.629 137.373 342.627C131.371 336.626 128 328.487 128 320V160Z" fill="#63D8CA"/>
</g>
<defs>
<clipPath id="clip0_6_2">
<rect width="512" height="512" fill="white"/>
</clipPath>
</defs>
</svg>
